# xmcd
#
# Track frame offsets:
#	150
#	14911
#	30577
#	43507
#	58810
#	73771
#	84545
#	98912
#	111268
#	127737
#	143331
#
# Disc length: 2104 seconds
#
# Revision: 1
# Processed by: cddbd v1.5.2PL0 Copyright (c) Steve Scherf et al.
# Submitted via: audiograbber 1.83.01
#
DISCID=9208360b
DTITLE=Mike Beeler - An old guitar and a brand new song
DYEAR=2001
DGENRE=Country
TTITLE0=An old guitar and a brand new song
TTITLE1=What I wanna hear
TTITLE2=Home sweet home
TTITLE3=Better days
TTITLE4=Songs on the jukebox
TTITLE5=She oughta to be
TTITLE6=Where in hell have gone
TTITLE7=It ain't right
TTITLE8=Stone cold memories
TTITLE9=I'm over you
TTITLE10=I hear your knockin'
EXTD=
EXTT0=
EXTT1=
EXTT2=
EXTT3=
EXTT4=
EXTT5=
EXTT6=
EXTT7=
EXTT8=
EXTT9=
EXTT10=
PLAYORDER=
